{
  "accessors": [
    {
      "bufferView": 2,
      "componentType": 5126,
      "count": 12768,
      "max": [
        70.10507202148438,
        155.67083740234375,
        113.37838745117188
      ],
      "min": [
        -70.10506439208984,
        0.03746184706687927,
        -113.37855529785156
      ],
      "type": "VEC3"
    },
    {
      "bufferView": 2,
      "byteOffset": 153216,
      "componentType": 5126,
      "count": 12768,
      "type": "VEC3"
    },
    {
      "bufferView": 3,
      "componentType": 5126,
      "count": 12768,
      "type": "VEC4"
    },
    {
      "bufferView": 1,
      "componentType": 5126,
      "count": 12768,
      "type": "VEC2"
    },
    {
      "bufferView": 0,
      "componentType": 5125,
      "count": 65400,
      "type": "SCALAR"
    }
  ],
  "asset": {
    "generator": "fab-model-conversion",
    "version": "2.0"
  },
  "bufferViews": [
    {
      "buffer": 0,
      "byteLength": 261600,
      "target": 34963
    },
    {
      "buffer": 0,
      "byteLength": 102144,
      "byteOffset": 261600,
      "byteStride": 8,
      "target": 34962
    },
    {
      "buffer": 0,
      "byteLength": 306432,
      "byteOffset": 363744,
      "byteStride": 12,
      "target": 34962
    },
    {
      "buffer": 0,
      "byteLength": 204288,
      "byteOffset": 670176,
      "byteStride": 16,
      "target": 34962
    }
  ],
  "buffers": [
    {
      "byteLength": 874464,
      "uri": "scene.bin"
    }
  ],
  "images": [
    {
      "uri": "textures/m_sleigh_BaseColor.jpeg"
    },
    {
      "uri": "textures/m_sleigh_ORM.jpeg"
    },
    {
      "uri": "textures/m_sleigh_Normal.png"
    }
  ],
  "materials": [
    {
      "doubleSided": true,
      "name": "m_sleigh",
      "normalTexture": {
        "index": 2
      },
      "pbrMetallicRoughness": {
        "baseColorTexture": {
          "index": 0
        },
        "metallicRoughnessTexture": {
          "index": 1
        }
      }
    }
  ],
  "meshes": [
    {
      "name": "Sleigh_m_sleigh_0",
      "primitives": [
        {
          "attributes": {
            "NORMAL": 1,
            "POSITION": 0,
            "TANGENT": 2,
            "TEXCOORD_0": 3
          },
          "indices": 4,
          "material": 0,
          "mode": 4
        }
      ]
    }
  ],
  "nodes": [
    {
      "children": [
        1
      ],
      "matrix": [
        1.0,
        0.0,
        0.0,
        0.0,
        0.0,
        2.220446049250313e-16,
        -1.0,
        0.0,
        0.0,
        1.0,
        2.220446049250313e-16,
        0.0,
        0.0,
        0.0,
        0.0,
        1.0
      ],
      "name": "FAB converted model"
    },
    {
      "children": [
        2
      ],
      "matrix": [
        0.009999999776482582,
        0.0,
        0.0,
        0.0,
        0.0,
        0.0,
        0.009999999776482582,
        0.0,
        0.0,
        -0.009999999776482582,
        0.0,
        0.0,
        0.0,
        0.0,
        0.0,
        1.0
      ],
      "name": "Sleigh.fbx"
    },
    {
      "children": [
        3
      ],
      "name": "RootNode"
    },
    {
      "children": [
        4
      ],
      "matrix": [
        1.0,
        0.0,
        0.0,
        0.0,
        0.0,
        1.0,
        0.0,
        0.0,
        0.0,
        0.0,
        1.0,
        0.0,
        -1.7110065534536867e-19,
        0.0,
        1.1926223897340549e-18,
        1.0
      ],
      "name": "Sleigh"
    },
    {
      "mesh": 0,
      "name": "Sleigh_m_sleigh_0"
    }
  ],
  "samplers": [
    {
      "magFilter": 9729,
      "minFilter": 9987,
      "wrapS": 10497,
      "wrapT": 10497
    }
  ],
  "scene": 0,
  "scenes": [
    {
      "name": "FAB converted",
      "nodes": [
        0
      ]
    }
  ],
  "textures": [
    {
      "sampler": 0,
      "source": 0
    },
    {
      "sampler": 0,
      "source": 1
    },
    {
      "sampler": 0,
      "source": 2
    }
  ]
}
